HIERARCHY
ROOT hip
{
  OFFSET 0 0 0
  CHANNELS 6 Xposition Yposition Zposition Zrotation Yrotation Xrotation
  JOINT abdomen
  {
    OFFSET 0 20.6881 -0.73152
    CHANNELS 3 Zrotation Xrotation Yrotation
    JOINT chest
    {
      OFFSET 0 11.7043 -0.48768
      CHANNELS 3 Zrotation Xrotation Yrotation
      JOINT neck
      {
        OFFSET 0 22.1894 -2.19456
        CHANNELS 3 Zrotation Xrotation Yrotation
        JOINT head
        {
          OFFSET -0.24384 7.07133 1.2192
          CHANNELS 3 Zrotation Xrotation Yrotation
          JOINT leftEye
          {
            OFFSET 4.14528 8.04674 8.04672
            CHANNELS 3 Zrotation Xrotation Yrotation
            End Site
            {
              OFFSET 1 0 0
            }
          }
          JOINT rightEye
          {
            OFFSET -3.6576 8.04674 8.04672
            CHANNELS 3 Zrotation Xrotation Yrotation
            End Site
            {
              OFFSET 1 0 0
            }
          }
        }
      }
      JOINT rCollar
      {
        OFFSET -2.68224 19.2634 -4.8768
        CHANNELS 3 Zrotation Xrotation Yrotation
        JOINT rShldr
        {
          OFFSET -8.77824 -1.95073 1.46304
          CHANNELS 3 Zrotation Xrotation Yrotation
          JOINT rForeArm
          {
            OFFSET -28.1742 -1.7115 0.48768
            CHANNELS 3 Zrotation Xrotation Yrotation
            JOINT rHand
            {
              OFFSET -22.5879 0.773209 7.07136
              CHANNELS 3 Zrotation Xrotation Yrotation
              JOINT rThumb1
              {
                OFFSET -1.2192 -0.487915 3.41376
                CHANNELS 3 Zrotation Xrotation Yrotation
                JOINT rThumb2
                {
                  OFFSET -3.37035 -0.52449 3.41376
                  CHANNELS 3 Zrotation Xrotation Yrotation
                  End Site
                  {
                    OFFSET -1.78271 -1.18214 1.43049
                  }
                }
              }
              JOINT rIndex1
              {
                OFFSET -7.75947 0.938293 5.60832
                CHANNELS 3 Zrotation Xrotation Yrotation
                JOINT rIndex2
                {
                  OFFSET -2.54057 -0.884171 1.56538
                  CHANNELS 3 Zrotation Xrotation Yrotation
                  End Site
                  {
                    OFFSET -1.62519 -0.234802 1.16502
                  }
                }
              }
              JOINT rMid1
              {
                OFFSET -8.24714 1.18213 3.41376
                CHANNELS 3 Zrotation Xrotation Yrotation
                JOINT rMid2
                {
                  OFFSET -3.10165 -0.590103 1.0647
                  CHANNELS 3 Zrotation Xrotation Yrotation
                  End Site
                  {
                    OFFSET -2.48547 -0.328903 0.83742
                  }
                }
              }
              JOINT rRing1
              {
                OFFSET -8.82822 0.546677 1.51678
                CHANNELS 3 Zrotation Xrotation Yrotation
                JOINT rRing2
                {
                  OFFSET -2.60934 -0.819778 -0.0198488
                  CHANNELS 3 Zrotation Xrotation Yrotation
                  End Site
                  {
                    OFFSET -2.33842 -0.294052 0.168128
                  }
                }
              }
              JOINT rPinky1
              {
                OFFSET -8.27202 -0.0477905 -0.4584
                CHANNELS 3 Zrotation Xrotation Yrotation
                JOINT rPinky2
                {
                  OFFSET -1.82734 -0.647385 -0.700984
                  CHANNELS 3 Zrotation Xrotation Yrotation
                  End Site
                  {
                    OFFSET -1.69225 -0.51767 -0.607171
                  }
                }
              }
            }
          }
        }
      }
      JOINT lCollar
      {
        OFFSET 2.68224 19.2634 -4.8768
        CHANNELS 3 Zrotation Xrotation Yrotation
        JOINT lShldr
        {
          OFFSET 8.77824 -1.95073 1.46304
          CHANNELS 3 Zrotation Xrotation Yrotation
          JOINT lForeArm
          {
            OFFSET 28.1742 -1.7115 0.48768
            CHANNELS 3 Zrotation Xrotation Yrotation
            JOINT lHand
            {
              OFFSET 22.5879 0.773209 7.07136
              CHANNELS 3 Zrotation Xrotation Yrotation
              JOINT lThumb1
              {
                OFFSET 1.2192 -0.487915 3.41376
                CHANNELS 3 Zrotation Xrotation Yrotation
                JOINT lThumb2
                {
                  OFFSET 3.37035 -0.52449 3.41376
                  CHANNELS 3 Zrotation Xrotation Yrotation
                  End Site
                  {
                    OFFSET 1.78271 -1.18214 1.43049
                  }
                }
              }
              JOINT lIndex1
              {
                OFFSET 7.75947 0.938293 5.60832
                CHANNELS 3 Zrotation Xrotation Yrotation
                JOINT lIndex2
                {
                  OFFSET 2.54057 -0.884171 1.56538
                  CHANNELS 3 Zrotation Xrotation Yrotation
                  End Site
                  {
                    OFFSET 1.62519 -0.234802 1.16502
                  }
                }
              }
              JOINT lMid1
              {
                OFFSET 8.24714 1.18213 3.41376
                CHANNELS 3 Zrotation Xrotation Yrotation
                JOINT lMid2
                {
                  OFFSET 3.10165 -0.590103 1.0647
                  CHANNELS 3 Zrotation Xrotation Yrotation
                  End Site
                  {
                    OFFSET 2.48547 -0.328903 0.83742
                  }
                }
              }
              JOINT lRing1
              {
                OFFSET 8.82822 0.546677 1.51678
                CHANNELS 3 Zrotation Xrotation Yrotation
                JOINT lRing2
                {
                  OFFSET 2.60934 -0.819778 -0.0198488
                  CHANNELS 3 Zrotation Xrotation Yrotation
                  End Site
                  {
                    OFFSET 2.33842 -0.294052 0.168128
                  }
                }
              }
              JOINT lPinky1
              {
                OFFSET 8.27202 -0.0477905 -0.4584
                CHANNELS 3 Zrotation Xrotation Yrotation
                JOINT lPinky2
                {
                  OFFSET 1.82734 -0.647385 -0.700984
                  CHANNELS 3 Zrotation Xrotation Yrotation
                  End Site
                  {
                    OFFSET 1.69225 -0.51767 -0.607171
                  }
                }
              }
            }
          }
        }
      }
    }
  }
  JOINT rButtock
  {
    OFFSET -8.77824 4.35084 1.2192
    CHANNELS 3 Zrotation Xrotation Yrotation
    JOINT rThigh
    {
      OFFSET 0 -1.70687 -2.19456
      CHANNELS 3 Zrotation Xrotation Yrotation
      JOINT rShin
      {
        OFFSET 0 -36.8199 0.73152
        CHANNELS 3 Zrotation Xrotation Yrotation
        JOINT rFoot
        {
          OFFSET 0.73152 -45.1104 -5.12064
          CHANNELS 3 Zrotation Xrotation Yrotation
          End Site
          {
            OFFSET -1.1221 -3.69964 12.103
          }
        }
      }
    }
  }
  JOINT lButtock
  {
    OFFSET 8.77824 4.35084 1.2192
    CHANNELS 3 Zrotation Xrotation Yrotation
    JOINT lThigh
    {
      OFFSET 0 -1.70687 -2.19456
      CHANNELS 3 Zrotation Xrotation Yrotation
      JOINT lShin
      {
        OFFSET 0 -36.8199 0.73152
        CHANNELS 3 Zrotation Xrotation Yrotation
        JOINT lFoot
        {
          OFFSET -0.73152 -45.1104 -5.12064
          CHANNELS 3 Zrotation Xrotation Yrotation
          End Site
          {
            OFFSET 1.1221 -3.69964 12.103
          }
        }
      }
    }
  }
}
MOTION
Frames:	6
Frame Time:	0.00833333
37.3608 83.9933 15.7058 0.0 0.0 0.0 -1.70621 -0.00254501 -0.0464501 -0.47056 0.00242728 -0.0814846 -7.07313e-14 7.95139e-16 7.45441e-17 -2.12861e-13 9.54166e-15 3.43214e-16 -0.0 0.0 0.0 -0.0 0.0 0.0 -3.54859e-14 -6.75557e-17 1.49089e-16 -7.43276e-13 -1.84497e-15 -3.97569e-16 -1.28206e-11 3.794e-12 1.62208e-13 -1.46871e-10 -4.11094e-12 -6.67917e-14 -3.46416e-10 -6.82344e-13 2.25819e-13 -5.98253e-10 -1.17999e-12 3.90413e-13 -3.46409e-10 -6.82627e-13 2.22639e-13 7.73091 5.47488 0.417314 -3.46414e-10 -6.8203e-13 2.22639e-13 2.90554 0.965183 0.102902 -3.46404e-10 -6.81831e-13 2.22639e-13 10.2786 0.731801 0.0259123 -3.46417e-10 -6.81036e-13 2.25819e-13 2.22167 -0.733487 -0.20892 -3.55819e-14 -7.105e-17 0.0 -7.4725e-13 -1.34801e-15 -2.38542e-15 -1.28467e-11 -3.88127e-12 1.01778e-13 -1.46852e-10 3.58553e-12 -1.59028e-14 -3.46425e-10 -6.43699e-13 2.16278e-13 -5.98252e-10 -1.11319e-12 4.01545e-13 -3.46433e-10 -6.40882e-13 2.25819e-13 -7.73091 5.47488 -0.417314 -3.46426e-10 -6.43565e-13 2.22639e-13 -2.90554 0.965183 -0.102902 -3.46443e-10 -6.4277e-13 2.24229e-13 -10.2786 0.731801 -0.0259123 -3.46423e-10 -6.42472e-13 2.19458e-13 -2.22167 -0.733487 0.20892 -2.03217e-16 0.0 -3.88251e-19 -0.810696 -1.92439 -0.00361164 -0.00901471 -2.07859 -0.0743064 -0.483769 3.99775 0.136123 2.03217e-16 0.0 3.88251e-19 -1.78658 -6.8542 0.170485 -0.00323746 6.85136 -0.08638 0.513137 -0.00230403 -0.0582051
34.8503 82.4311 13.594 12.0279 -68.4464 -4.6498 -1.76042 0.0843679 -0.286307 0.51382 -0.0936563 -0.153034 -2.3012 -1.54381 0.418355 1.20839 1.5747 1.53084 -0.0 0.0 0.0 -0.0 0.0 0.0 1.45422e-14 4.62976e-13 -2.3968e-13 19.6554 4.01693 -1.95616 -5.87605 -3.11069 8.64862 0.0286134 3.75421 0.523538 3.63994e-10 7.79607e-11 -6.51562e-10 6.21717e-10 1.33439e-10 -1.13545e-09 3.63999e-10 7.7961e-11 -6.51566e-10 7.73091 5.47488 0.417314 3.63997e-10 7.79613e-11 -6.51564e-10 2.90554 0.965183 0.102902 3.64003e-10 7.79609e-11 -6.51564e-10 10.2786 0.731801 0.0259123 3.63992e-10 7.7962e-11 -6.5156e-10 2.22167 -0.733487 -0.20892 1.44662e-14 4.62971e-13 -2.39826e-13 -22.5932 5.96661 -0.309731 4.53478 -2.12723 -7.00898 -0.00855034 2.05135 -0.287631 3.39891e-10 -1.56185e-09 -1.91892e-10 5.87281e-10 -2.70741e-09 -3.36668e-10 3.39883e-10 -1.56185e-09 -1.91882e-10 -7.73091 5.47488 -0.417314 3.39891e-10 -1.56185e-09 -1.91888e-10 -2.90554 0.965183 -0.102902 3.39876e-10 -1.56185e-09 -1.91887e-10 -10.2786 0.731801 -0.0259123 3.39893e-10 -1.56185e-09 -1.91893e-10 -2.22167 -0.733487 0.20892 -2.03217e-16 0.0 -3.88251e-19 -0.792518 -6.55566 -0.416711 0.0101873 7.14268 0.0816692 -0.620922 -1.70384 -1.12506 2.03217e-16 0.0 3.88251e-19 -2.47539 -10.2083 0.402011 -0.00307789 13.8474 -0.190471 0.680462 -2.67847 1.26627
34.8494 82.4353 13.5678 12.1472 -68.3905 -4.7946 -1.81766 0.179569 -0.540162 1.5573 -0.195374 -0.228779 -4.7128 -3.17742 0.861149 2.39534 3.24048 3.15322 -0.0 0.0 0.0 -0.0 0.0 0.0 6.67014e-14 9.58425e-13 -4.98897e-13 40.7298 8.2521 -4.05464 -11.0796 -6.16402 17.8739 -0.0163308 7.71444 1.08347 1.12443e-09 1.70952e-10 -1.36082e-09 1.92747e-09 2.92735e-10 -2.37132e-09 1.12444e-09 1.70953e-10 -1.36082e-09 7.73091 5.47488 0.417314 1.12444e-09 1.70953e-10 -1.36082e-09 2.90554 0.965183 0.102902 1.12444e-09 1.70952e-10 -1.36082e-09 10.2786 0.731801 0.0259123 1.12443e-09 1.70954e-10 -1.36081e-09 2.22167 -0.733487 -0.20892 6.66471e-14 9.5842e-13 -4.99036e-13 -46.4086 12.2781 -0.648143 8.76729 -4.26989 -14.4492 0.00486024 4.21952 -0.592894 1.07837e-09 -3.23067e-09 -3.71883e-10 1.8631e-09 -5.60032e-09 -6.53187e-10 1.07836e-09 -3.23066e-09 -3.71872e-10 -7.73091 5.47488 -0.417314 1.07837e-09 -3.23066e-09 -3.7188e-10 -2.90554 0.965183 -0.102902 1.07836e-09 -3.23067e-09 -3.71881e-10 -10.2786 0.731801 -0.0259123 1.07837e-09 -3.23066e-09 -3.71889e-10 -2.22167 -0.733487 0.20892 -2.03217e-16 0.0 -3.88251e-19 -0.851089 -11.4499 -0.880035 -0.0259483 16.8944 0.25627 -1.04061 -7.71608 -2.4807 2.03217e-16 0.0 3.88251e-19 -3.17373 -13.7516 0.658269 0.0268815 21.2463 -0.310952 0.991919 -5.50266 2.67225
34.8522 82.4381 13.5297 12.192 -68.3311 -4.8423 -1.86666 0.258174 -0.766028 2.48186 -0.285821 -0.296137 -6.83579 -4.63043 1.25872 3.3723 4.7106 4.60638 -0.0 0.0 0.0 -0.0 0.0 0.0 1.14598e-13 1.38906e-12 -7.19339e-13 59.803 11.994 -5.98517 -14.8923 -8.48316 26.2156 -0.123394 11.2588 1.59801 1.78481e-09 2.35247e-10 -1.95514e-09 3.06166e-09 4.02676e-10 -3.40714e-09 1.78482e-09 2.35248e-10 -1.95514e-09 7.73091 5.47488 0.417314 1.78482e-09 2.35248e-10 -1.95514e-09 2.90554 0.965183 0.102902 1.78482e-09 2.35246e-10 -1.95514e-09 10.2786 0.731801 0.0259123 1.78481e-09 2.35248e-10 -1.95513e-09 2.22167 -0.733487 -0.20892 1.14562e-13 1.38906e-12 -7.19478e-13 -67.5777 17.8977 -0.971161 12.0748 -6.00052 -21.1337 0.0364391 6.15342 -0.867336 1.71252e-09 -4.68426e-09 -5.76109e-10 2.95835e-09 -8.12e-09 -1.01081e-09 1.71251e-09 -4.68426e-09 -5.76097e-10 -7.73091 5.47488 -0.417314 1.71252e-09 -4.68425e-09 -5.76108e-10 -2.90554 0.965183 -0.102902 1.71251e-09 -4.68426e-09 -5.7611e-10 -10.2786 0.731801 -0.0259123 1.71253e-09 -4.68425e-09 -5.76119e-10 -2.22167 -0.733487 0.20892 -2.03217e-16 0.0 -3.88251e-19 -0.963478 -15.8149 -1.28332 -0.113842 25.5846 0.434196 -1.66203 -13.081 -3.74253 2.03217e-16 0.0 3.88251e-19 -3.76802 -16.9152 0.886774 0.0835072 27.839 -0.433446 1.38906 -8.01394 3.9497
34.8569 82.4398 13.5056 12.1911 -68.2799 -4.8307 -1.89676 0.29531 -0.921912 3.10961 -0.348092 -0.342525 -8.28523 -5.63288 1.53974 4.00416 5.70457 5.62309 -0.0 0.0 0.0 -0.0 0.0 0.0 1.5184e-13 1.65767e-12 -8.42847e-13 73.2767 14.5566 -7.38439 -17.1273 -9.77817 32.0904 -0.238253 13.7672 1.97336 2.19503e-09 2.27798e-10 -2.26213e-09 3.76693e-09 3.89224e-10 -3.94287e-09 2.19503e-09 2.27799e-10 -2.26214e-09 7.73091 5.47488 0.417314 2.19504e-09 2.27799e-10 -2.26213e-09 2.90554 0.965183 0.102902 2.19503e-09 2.27797e-10 -2.26213e-09 10.2786 0.731801 0.0259123 2.19503e-09 2.27799e-10 -2.26212e-09 2.22167 -0.733487 -0.20892 1.51813e-13 1.65766e-12 -8.42996e-13 -82.2762 21.7897 -1.21582 14.1354 -7.06419 -25.8268 0.0695315 7.50224 -1.0605 2.08588e-09 -5.59981e-09 -8.40923e-10 3.60218e-09 -9.70664e-09 -1.47117e-09 2.08587e-09 -5.59981e-09 -8.4091e-10 -7.73091 5.47488 -0.417314 2.08588e-09 -5.5998e-09 -8.40923e-10 -2.90554 0.965183 -0.102902 2.08587e-09 -5.59981e-09 -8.40925e-10 -10.2786 0.731801 -0.0259123 2.08588e-09 -5.5998e-09 -8.40935e-10 -2.22167 -0.733487 0.20892 -2.03217e-16 0.0 -3.88251e-19 -1.04951 -18.8602 -1.49654 -0.212757 31.6217 0.579696 -2.24272 -16.8543 -4.6667 2.03217e-16 0.0 3.88251e-19 -4.16586 -19.1309 1.02729 0.142676 32.4168 -0.530935 1.73723 -9.75889 4.87317
34.8536 82.4425 13.4837 12.2463 -68.2777 -4.8749 -1.8977 0.272708 -0.975569 3.31704 -0.371604 -0.358373 -8.81428 -5.9907 1.65359 4.23579 6.02142 6.01559 -0.0 0.0 0.0 -0.0 0.0 0.0 1.76756e-13 1.70736e-12 -8.29819e-13 78.641 15.5024 -7.96599 -17.9078 -10.1906 34.3789 -0.295915 14.8333 2.13619 2.29762e-09 1.12876e-10 -2.15723e-09 3.94546e-09 1.9095e-10 -3.76241e-09 2.29762e-09 1.12878e-10 -2.15723e-09 7.73091 5.47488 0.417314 2.29762e-09 1.12878e-10 -2.15723e-09 2.90554 0.965183 0.102902 2.29762e-09 1.12876e-10 -2.15722e-09 10.2786 0.731801 0.0259123 2.29762e-09 1.12879e-10 -2.15722e-09 2.22167 -0.733487 -0.20892 1.76724e-13 1.70734e-12 -8.30002e-13 -87.9863 23.2624 -1.31857 14.8916 -7.44329 -27.6739 0.0850239 8.03189 -1.13683 2.12403e-09 -5.76888e-09 -1.20497e-09 3.66569e-09 -9.99892e-09 -2.10045e-09 2.12402e-09 -5.76888e-09 -1.20495e-09 -7.73091 5.47488 -0.417314 2.12403e-09 -5.76887e-09 -1.20497e-09 -2.90554 0.965183 -0.102902 2.12403e-09 -5.76888e-09 -1.20497e-09 -10.2786 0.731801 -0.0259123 2.12404e-09 -5.76887e-09 -1.20498e-09 -2.22167 -0.733487 0.20892 -2.03217e-16 0.0 -3.88251e-19 -1.01451 -20.0548 -1.38891 -0.261029 33.9443 0.642947 -2.50156 -18.4383 -5.01595 2.03217e-16 0.0 3.88251e-19 -4.31742 -20.0165 1.02286 0.170338 34.173 -0.571858 1.89847 -10.4417 5.28222
